<?xml version="1.0" encoding="utf-8"?>
<!-- Generator: Adobe Illustrator 24.1.2, SVG Export Plug-In . SVG Version: 6.00 Build 0)  -->
<svg version="1.1" id="Layer_1" xmlns="http://www.w3.org/2000/svg" xmlns:xlink="http://www.w3.org/1999/xlink" x="0px" y="0px"
	 viewBox="0 0 32 32" style="enable-background:new 0 0 32 32;" xml:space="preserve">
<style type="text/css">
	.st0{fill:#DB4A39;}
	.st1{fill:#FFFFFF;}
</style>
<g id="Ellipse_7_">
	<g>
		<circle class="st0" cx="16" cy="16" r="16"/>
	</g>
</g>
<g id="icon-google-plus">
	<g>
		<path class="st1" d="M21.63,10.83V8.5h-1.27v2.33h-2.41v1.27h2.41v1.99h1.27v-1.99H24v-1.27H21.63z M14.93,15.56
			c0-1.31,2.25-1.46,2.25-3.55c0-1.11-0.46-2.26-1.47-2.85h0.62l1.51-0.66h-3.56c-0.45,0-0.98,0.06-1.67,0.17
			C10.57,9,9.19,10.51,9.19,12.33c0,1.56,1.61,2.87,3.79,2.87c0.26,0,0.52-0.02,0.7-0.05c-0.07,0.32-0.16,0.55-0.16,0.89
			c0,0.57,0.22,1.09,0.46,1.53c-2.04,0.05-4.84,0.56-5.64,2.16C8.15,20.09,8,20.49,8,20.91c0,2.02,2.23,2.59,4.67,2.59
			c1.47,0,2.73-0.23,3.93-1c0.79-0.65,1.29-1.47,1.29-2.48C17.89,17.4,14.93,16.88,14.93,15.56z M13.9,14.54
			c-1.78,0-2.91-1.85-2.91-3.21c0-1.14,0.72-2.23,2.19-2.23c1.44,0,2.15,2.4,2.15,3.72C15.34,13.77,14.88,14.54,13.9,14.54z
			 M13.82,22.84c-1.63,0-4.05-0.65-4.05-2.34c0-1.83,2.74-2.29,4.28-2.29c0.12,0,0.24,0,0.36,0.02c0.82,0.62,2.18,1.31,2.18,2.54
			C16.59,22.31,14.88,22.84,13.82,22.84z"/>
	</g>
</g>
</svg>
