<?xml version="1.0" encoding="utf-8"?>
<!-- Generator: Adobe Illustrator 24.1.2, SVG Export Plug-In . SVG Version: 6.00 Build 0)  -->
<svg version="1.1" id="Layer_1" xmlns="http://www.w3.org/2000/svg" xmlns:xlink="http://www.w3.org/1999/xlink" x="0px" y="0px"
	 viewBox="0 0 32 32" style="enable-background:new 0 0 32 32;" xml:space="preserve">
<style type="text/css">
	.st0{fill:#787878;}
	.st1{fill:#FFFFFF;}
</style>
<g id="Ellipse_11_">
	<g>
		<ellipse transform="matrix(0.5257 -0.8507 0.8507 0.5257 -6.0221 21.1987)" class="st0" cx="16" cy="16" rx="16" ry="16"/>
	</g>
</g>
<g id="icon-linkedin">
	<g>
		<path class="st1" d="M8.68,23h3.04v-9.57H8.68V23z M19.95,13.39c-1.79-0.18-2.58,0.75-3.02,1.4v-1.2h-3.35c0,0,0.04,0.81,0,9.35
			h3.35v-5.34c0-0.29,0.03-0.57,0.11-0.78c0.24-0.57,0.79-1.16,1.72-1.16c1.21,0,1.7,0.88,1.7,2.16v5.12h3.04v-5.49
			C23.5,14.62,22,13.39,19.95,13.39z M10.22,9C9.19,9,8.5,9.71,8.5,10.65c0,0.92,0.66,1.65,1.69,1.65h0.02
			c1.06,0,1.74-0.73,1.73-1.65v-0.18C11.93,9.71,11.27,9,10.22,9z"/>
	</g>
</g>
</svg>
