<?xml version="1.0" encoding="utf-8"?>
<!-- Generator: Adobe Illustrator 24.1.2, SVG Export Plug-In . SVG Version: 6.00 Build 0)  -->
<svg version="1.1" id="Layer_1" xmlns="http://www.w3.org/2000/svg" xmlns:xlink="http://www.w3.org/1999/xlink" x="0px" y="0px"
	 viewBox="0 0 32 32" style="enable-background:new 0 0 32 32;" xml:space="preserve">
<style type="text/css">
	.st0{fill:#787878;}
	.st1{fill:#FFFFFF;}
</style>
<g id="Ellipse_9_">
	<g>
		<ellipse transform="matrix(0.9239 -0.3827 0.3827 0.9239 -4.905 7.3409)" class="st0" cx="16" cy="16" rx="16" ry="16"/>
	</g>
</g>
<g id="icon-pinterest">
	<g>
		<path class="st1" d="M16.54,7.93c-4.26,0-7.61,3.63-7.61,7.88c0,3.25,1.74,5.7,4.56,6.63c-0.02-0.42-0.01-0.92,0.13-1.37
			c0,0,0.15-0.48,0.97-4.13c-0.25-0.51-0.25-1.26-0.25-1.26c0-1.17,0.66-2.05,1.48-2.05c0.7,0,1.04,0.55,1.04,1.2
			c0,0.72-0.45,1.8-0.68,2.8c-0.19,0.85,0.41,1.53,1.09,1.53c1.13,0,1.88-1.93,1.88-4.21c0-1.67-0.88-2.74-2.52-2.74
			c-2.32,0-3.74,1.49-3.74,3.49c0,0.69,0.2,1.18,0.5,1.56c0.14,0.18,0.16,0.24,0.11,0.44c-0.04,0.14-0.12,0.49-0.16,0.63
			c-0.05,0.21-0.21,0.28-0.37,0.21c-1.18-0.45-1.73-1.67-1.73-3.03c0-2.18,2-5.15,5.61-5.15c2.27,0,4.81,2.56,4.81,4.74
			c0,3.11-2.23,5.43-4.25,5.43c-0.67,0-1.45-0.46-1.71-0.99c-0.45,1.62-0.54,1.88-0.54,1.88c-0.16,0.46-0.49,0.92-0.78,1.27
			c0.7,0.16,1.42,0.25,2.17,0.25c3.87,0,7.39-2.75,7.39-7.12C23.93,11.56,20.41,7.93,16.54,7.93z"/>
	</g>
</g>
</svg>
