<?xml version="1.0" encoding="utf-8"?>
<!-- Generator: Adobe Illustrator 24.1.2, SVG Export Plug-In . SVG Version: 6.00 Build 0)  -->
<svg version="1.1" id="Layer_1" xmlns="http://www.w3.org/2000/svg" xmlns:xlink="http://www.w3.org/1999/xlink" x="0px" y="0px"
	 viewBox="0 0 32 32" style="enable-background:new 0 0 32 32;" xml:space="preserve">
<style type="text/css">
	.st0{fill:#787878;}
	.st1{fill:#FFFFFF;}
</style>
<g id="Ellipse_10_">
	<g>
		<ellipse transform="matrix(0.982 -0.1891 0.1891 0.982 -2.737 3.3144)" class="st0" cx="16" cy="16" rx="16" ry="16"/>
	</g>
</g>
<g id="icon-twitter">
	<g>
		<path class="st1" d="M23.5,11.04c-0.55,0.25-1.15,0.44-1.77,0.51c0.64-0.41,1.12-1.05,1.35-1.81c-0.59,0.38-1.26,0.65-1.95,0.79
			C20.57,9.9,19.77,9.5,18.89,9.5c-1.7,0-3.07,1.47-3.07,3.28c0,0.25,0.03,0.51,0.08,0.75c-2.55-0.14-4.83-1.44-6.34-3.43
			c-0.27,0.49-0.42,1.05-0.42,1.66c0,1.14,0.54,2.14,1.37,2.73c-0.5-0.02-0.98-0.17-1.39-0.42v0.04c0,1.59,1.06,2.91,2.47,3.22
			c-0.26,0.07-0.53,0.11-0.81,0.11c-0.2,0-0.39-0.02-0.58-0.05c0.39,1.3,1.52,2.24,2.87,2.27c-1.06,0.88-2.38,1.4-3.82,1.4
			c-0.26,0-0.49-0.01-0.74-0.04c1.36,0.93,2.98,1.47,4.72,1.47c5.65,0,8.75-5,8.75-9.33c0-0.14,0-0.28-0.01-0.43
			C22.56,12.27,23.08,11.69,23.5,11.04z"/>
	</g>
</g>
</svg>
