<?xml version="1.0" encoding="utf-8"?>
<!-- Generator: Adobe Illustrator 24.1.2, SVG Export Plug-In . SVG Version: 6.00 Build 0)  -->
<svg version="1.1" id="Layer_1" xmlns="http://www.w3.org/2000/svg" xmlns:xlink="http://www.w3.org/1999/xlink" x="0px" y="0px"
	 viewBox="0 0 32 32" style="enable-background:new 0 0 32 32;" xml:space="preserve">
<style type="text/css">
	.st0{fill:#787878;}
	.st1{fill:#FFFFFF;}
</style>
<g id="Ellipse_8_">
	<g>
		<circle class="st0" cx="16" cy="16" r="16"/>
	</g>
</g>
<g id="icon-rss">
	<g>
		<path class="st1" d="M10.13,14.09h-0.05c-0.15,0-0.3,0.06-0.4,0.17c-0.13,0.12-0.19,0.29-0.19,0.47v1.34
			c0,0.33,0.23,0.6,0.54,0.63c2.81,0.29,5.05,2.69,5.31,5.73c0.03,0.33,0.28,0.58,0.58,0.58h1.25c0.17,0,0.32-0.07,0.43-0.21
			c0.11-0.13,0.17-0.3,0.16-0.48c-0.16-2.12-1.01-4.12-2.42-5.62C13.95,15.18,12.1,14.26,10.13,14.09z M11.27,19.18
			c-0.98,0-1.77,0.86-1.77,1.91c0,1.05,0.79,1.91,1.77,1.91s1.77-0.86,1.77-1.91C13.04,20.04,12.25,19.18,11.27,19.18z M18.67,13.12
			c-2.29-2.48-5.32-3.94-8.55-4.12h-0.03c-0.15,0-0.3,0.06-0.41,0.18C9.56,9.3,9.5,9.46,9.5,9.64v1.42c0,0.33,0.24,0.61,0.55,0.63
			c5.36,0.34,9.63,4.94,9.94,10.72c0.02,0.34,0.28,0.6,0.59,0.6h1.32c0.17,0,0.31-0.07,0.42-0.2c0.12-0.13,0.18-0.3,0.17-0.47
			C22.32,18.85,20.96,15.58,18.67,13.12z"/>
	</g>
</g>
</svg>
